<mxfile host="65bd71144e">
    <diagram id="FHAlWhh75BVz3Mec7KVl" name="Page-1">
        <mxGraphModel dx="2417" dy="2020" grid="1" gridSize="10" guides="1" tooltips="1" connect="1" arrows="1" fold="1" page="1" pageScale="1" pageWidth="850" pageHeight="1100" math="0" shadow="0">
            <root>
                <mxCell id="0"/>
                <mxCell id="1" parent="0"/>
                <mxCell id="65" value="" style="whiteSpace=wrap;html=1;" parent="1" vertex="1">
                    <mxGeometry x="-690" y="-130" width="1760" height="1050" as="geometry"/>
                </mxCell>
                <mxCell id="51" value="" style="rounded=1;whiteSpace=wrap;html=1;strokeWidth=1;fontSize=18;" parent="1" vertex="1">
                    <mxGeometry x="-530" y="120" width="690" height="720" as="geometry"/>
                </mxCell>
                <mxCell id="50" value="" style="rounded=1;whiteSpace=wrap;html=1;strokeWidth=1;fontSize=18;" parent="1" vertex="1">
                    <mxGeometry x="215" y="120" width="690" height="720" as="geometry"/>
                </mxCell>
                <mxCell id="20" style="edgeStyle=none;html=1;exitX=0.5;exitY=1;exitDx=0;exitDy=0;entryX=0.5;entryY=0;entryDx=0;entryDy=0;strokeWidth=3;fontSize=18;" parent="1" source="11" target="2" edge="1">
                    <mxGeometry relative="1" as="geometry"/>
                </mxCell>
                <mxCell id="11" value="&lt;font style=&quot;font-size: 25px;&quot;&gt;client&lt;/font&gt;" style="whiteSpace=wrap;html=1;strokeWidth=1;fontSize=18;" parent="1" vertex="1">
                    <mxGeometry x="65" y="-40" width="210" height="100" as="geometry"/>
                </mxCell>
                <mxCell id="14" value="" style="group;strokeWidth=1;fontSize=18;" parent="1" vertex="1" connectable="0">
                    <mxGeometry x="110" y="150" width="140" height="80" as="geometry"/>
                </mxCell>
                <mxCell id="2" value="" style="whiteSpace=wrap;html=1;strokeWidth=1;fontSize=18;" parent="14" vertex="1">
                    <mxGeometry width="120" height="60" as="geometry"/>
                </mxCell>
                <mxCell id="12" value="" style="whiteSpace=wrap;html=1;strokeWidth=1;fontSize=18;" parent="14" vertex="1">
                    <mxGeometry x="10" y="10" width="120" height="60" as="geometry"/>
                </mxCell>
                <mxCell id="13" value="Load Balancer" style="whiteSpace=wrap;html=1;strokeWidth=1;fontSize=18;" parent="14" vertex="1">
                    <mxGeometry x="20" y="20" width="120" height="60" as="geometry"/>
                </mxCell>
                <mxCell id="30" value="" style="group;strokeWidth=1;fontSize=18;" parent="1" vertex="1" connectable="0">
                    <mxGeometry x="715" y="680" width="140" height="80" as="geometry"/>
                </mxCell>
                <mxCell id="31" value="" style="whiteSpace=wrap;html=1;strokeWidth=1;fontSize=18;" parent="30" vertex="1">
                    <mxGeometry width="120" height="60" as="geometry"/>
                </mxCell>
                <mxCell id="32" value="" style="whiteSpace=wrap;html=1;strokeWidth=1;fontSize=18;" parent="30" vertex="1">
                    <mxGeometry x="10" y="10" width="120" height="60" as="geometry"/>
                </mxCell>
                <mxCell id="33" value="Memory Cache" style="whiteSpace=wrap;html=1;strokeWidth=1;fontSize=18;" parent="30" vertex="1">
                    <mxGeometry x="20" y="20" width="120" height="60" as="geometry"/>
                </mxCell>
                <mxCell id="36" style="html=1;exitX=1;exitY=0.5;exitDx=0;exitDy=0;exitPerimeter=0;entryX=0;entryY=0.5;entryDx=0;entryDy=0;entryPerimeter=0;shadow=1;endArrow=classic;endFill=1;dashed=1;dashPattern=8 8;strokeWidth=1;fontSize=18;" parent="1" source="34" target="35" edge="1">
                    <mxGeometry relative="1" as="geometry"/>
                </mxCell>
                <mxCell id="34" value="Write&lt;br style=&quot;font-size: 18px;&quot;&gt;Master" style="shape=cylinder3;whiteSpace=wrap;html=1;boundedLbl=1;backgroundOutline=1;size=15;strokeWidth=1;fontSize=18;" parent="1" vertex="1">
                    <mxGeometry x="307.14" y="670" width="60" height="80" as="geometry"/>
                </mxCell>
                <mxCell id="35" value="Read&lt;br style=&quot;font-size: 18px;&quot;&gt;Replication" style="shape=cylinder3;whiteSpace=wrap;html=1;boundedLbl=1;backgroundOutline=1;size=15;strokeWidth=1;fontSize=18;" parent="1" vertex="1">
                    <mxGeometry x="520" y="670" width="60" height="80" as="geometry"/>
                </mxCell>
                <mxCell id="52" value="&lt;font style=&quot;font-size: 35px;&quot;&gt;Dev&lt;/font&gt;" style="text;html=1;align=center;verticalAlign=middle;resizable=0;points=[];autosize=1;strokeColor=none;fillColor=none;strokeWidth=1;fontSize=35;" parent="1" vertex="1">
                    <mxGeometry x="-490" y="160" width="90" height="60" as="geometry"/>
                </mxCell>
                <mxCell id="53" value="&lt;font style=&quot;font-size: 35px;&quot;&gt;Prod&lt;/font&gt;" style="text;html=1;align=center;verticalAlign=middle;resizable=0;points=[];autosize=1;strokeColor=none;fillColor=none;strokeWidth=1;fontSize=35;" parent="1" vertex="1">
                    <mxGeometry x="735" y="160" width="100" height="60" as="geometry"/>
                </mxCell>
                <mxCell id="54" value="" style="group;strokeWidth=1;fontSize=18;" parent="1" vertex="1" connectable="0">
                    <mxGeometry x="-160" y="330" width="140" height="80" as="geometry"/>
                </mxCell>
                <mxCell id="55" value="" style="whiteSpace=wrap;html=1;strokeWidth=1;fontSize=18;" parent="54" vertex="1">
                    <mxGeometry width="120" height="60" as="geometry"/>
                </mxCell>
                <mxCell id="56" value="" style="whiteSpace=wrap;html=1;strokeWidth=1;fontSize=18;" parent="54" vertex="1">
                    <mxGeometry x="10" y="10" width="120" height="60" as="geometry"/>
                </mxCell>
                <mxCell id="57" value="web server" style="whiteSpace=wrap;html=1;strokeWidth=1;fontSize=18;" parent="54" vertex="1">
                    <mxGeometry x="20" y="20" width="120" height="60" as="geometry"/>
                </mxCell>
                <mxCell id="58" style="edgeStyle=orthogonalEdgeStyle;rounded=1;html=1;exitX=0.5;exitY=1;exitDx=0;exitDy=0;entryX=0.5;entryY=0;entryDx=0;entryDy=0;shadow=1;strokeWidth=3;fontSize=35;endArrow=classic;endFill=1;" parent="1" source="13" target="55" edge="1">
                    <mxGeometry relative="1" as="geometry"/>
                </mxCell>
                <mxCell id="64" value="&lt;font style=&quot;font-size: 20px;&quot;&gt;Manual sync&lt;/font&gt;" style="edgeStyle=none;rounded=1;html=1;exitX=1;exitY=0.5;exitDx=0;exitDy=0;exitPerimeter=0;entryX=0;entryY=0.5;entryDx=0;entryDy=0;entryPerimeter=0;shadow=1;strokeWidth=1;fontSize=35;endArrow=none;endFill=0;dashed=1;dashPattern=12 12;startArrow=classic;startFill=1;" parent="1" source="62" target="34" edge="1">
                    <mxGeometry relative="1" as="geometry">
                        <mxPoint as="offset"/>
                    </mxGeometry>
                </mxCell>
                <mxCell id="90" style="edgeStyle=orthogonalEdgeStyle;html=1;exitX=0.133;exitY=1.041;exitDx=0;exitDy=0;entryX=0.5;entryY=0;entryDx=0;entryDy=0;entryPerimeter=0;strokeWidth=3;fontSize=21;endArrow=classic;endFill=1;exitPerimeter=0;" edge="1" parent="1" source="89" target="34">
                    <mxGeometry relative="1" as="geometry"/>
                </mxCell>
                <mxCell id="91" value="&lt;font style=&quot;font-size: 30px;&quot;&gt;Write&lt;/font&gt;" style="edgeLabel;html=1;align=center;verticalAlign=middle;resizable=0;points=[];fontSize=21;" vertex="1" connectable="0" parent="90">
                    <mxGeometry x="-0.3758" y="-1" relative="1" as="geometry">
                        <mxPoint y="-18" as="offset"/>
                    </mxGeometry>
                </mxCell>
                <mxCell id="92" style="edgeStyle=orthogonalEdgeStyle;html=1;exitX=0.5;exitY=1;exitDx=0;exitDy=0;entryX=0.5;entryY=0;entryDx=0;entryDy=0;entryPerimeter=0;strokeWidth=3;fontSize=21;endArrow=classic;endFill=1;" edge="1" parent="1" source="89" target="35">
                    <mxGeometry relative="1" as="geometry"/>
                </mxCell>
                <mxCell id="94" style="edgeStyle=orthogonalEdgeStyle;html=1;exitX=0.5;exitY=1;exitDx=0;exitDy=0;entryX=0.5;entryY=0;entryDx=0;entryDy=0;strokeWidth=3;fontSize=21;endArrow=classic;endFill=1;" edge="1" parent="1" source="89" target="31">
                    <mxGeometry relative="1" as="geometry"/>
                </mxCell>
                <mxCell id="95" value="&lt;span style=&quot;color: rgba(0, 0, 0, 0); font-family: monospace; font-size: 0px; text-align: start; background-color: rgb(42, 37, 47);&quot;&gt;%3CmxGraphModel%3E%3Croot%3E%3CmxCell%20id%3D%220%22%2F%3E%3CmxCell%20id%3D%221%22%20parent%3D%220%22%2F%3E%3CmxCell%20id%3D%222%22%20value%3D%22Frontend%20N%22%20style%3D%22whiteSpace%3Dwrap%3Bhtml%3D1%3B%22%20vertex%3D%221%22%20parent%3D%221%22%3E%3CmxGeometry%20x%3D%22670%22%20y%3D%22330%22%20width%3D%22120%22%20height%3D%2260%22%20as%3D%22geometry%22%2F%3E%3C%2FmxCell%3E%3C%2Froot%3E%3C%2FmxGraphModel%3&lt;/span&gt;" style="edgeLabel;html=1;align=center;verticalAlign=middle;resizable=0;points=[];fontSize=30;" vertex="1" connectable="0" parent="94">
                    <mxGeometry x="-0.6407" relative="1" as="geometry">
                        <mxPoint as="offset"/>
                    </mxGeometry>
                </mxCell>
                <mxCell id="96" value="Read" style="edgeLabel;html=1;align=center;verticalAlign=middle;resizable=0;points=[];fontSize=30;" vertex="1" connectable="0" parent="94">
                    <mxGeometry x="-0.725" y="1" relative="1" as="geometry">
                        <mxPoint as="offset"/>
                    </mxGeometry>
                </mxCell>
                <mxCell id="89" value="" style="whiteSpace=wrap;html=1;fontSize=21;" vertex="1" parent="1">
                    <mxGeometry x="260" y="300" width="580" height="130" as="geometry"/>
                </mxCell>
                <mxCell id="62" value="W/R" style="shape=cylinder3;whiteSpace=wrap;html=1;boundedLbl=1;backgroundOutline=1;size=15;strokeWidth=1;fontSize=18;" parent="1" vertex="1">
                    <mxGeometry x="-110" y="670" width="60" height="80" as="geometry"/>
                </mxCell>
                <mxCell id="63" style="edgeStyle=none;rounded=1;html=1;exitX=0.5;exitY=1;exitDx=0;exitDy=0;entryX=0.5;entryY=0;entryDx=0;entryDy=0;entryPerimeter=0;shadow=1;strokeWidth=3;fontSize=35;endArrow=classic;endFill=1;" parent="1" source="57" target="62" edge="1">
                    <mxGeometry relative="1" as="geometry"/>
                </mxCell>
                <mxCell id="66" value="Frontend 01" style="whiteSpace=wrap;html=1;" vertex="1" parent="1">
                    <mxGeometry x="307.14" y="330" width="120" height="60" as="geometry"/>
                </mxCell>
                <mxCell id="67" value="Frontend 02" style="whiteSpace=wrap;html=1;" vertex="1" parent="1">
                    <mxGeometry x="480" y="330" width="120" height="60" as="geometry"/>
                </mxCell>
                <mxCell id="68" value="Frontend N" style="whiteSpace=wrap;html=1;" vertex="1" parent="1">
                    <mxGeometry x="670" y="330" width="120" height="60" as="geometry"/>
                </mxCell>
                <mxCell id="70" value="..." style="text;html=1;align=center;verticalAlign=middle;resizable=0;points=[];autosize=1;strokeColor=none;fillColor=none;" vertex="1" parent="1">
                    <mxGeometry x="640" y="345" width="30" height="30" as="geometry"/>
                </mxCell>
                <mxCell id="71" style="edgeStyle=orthogonalEdgeStyle;html=1;exitX=1;exitY=0.5;exitDx=0;exitDy=0;entryX=0.5;entryY=0;entryDx=0;entryDy=0;shadow=1;endArrow=classic;endFill=1;rounded=1;strokeWidth=3;fontSize=18;" edge="1" parent="1" source="13" target="67">
                    <mxGeometry relative="1" as="geometry">
                        <mxPoint x="200" y="240" as="sourcePoint"/>
                        <mxPoint x="437.1399999999999" y="340" as="targetPoint"/>
                    </mxGeometry>
                </mxCell>
                <mxCell id="72" style="edgeStyle=orthogonalEdgeStyle;html=1;entryX=0.5;entryY=0;entryDx=0;entryDy=0;shadow=1;endArrow=classic;endFill=1;rounded=1;strokeWidth=3;fontSize=18;" edge="1" parent="1" source="13" target="68">
                    <mxGeometry relative="1" as="geometry">
                        <mxPoint x="210" y="250" as="sourcePoint"/>
                        <mxPoint x="447.1399999999999" y="350" as="targetPoint"/>
                    </mxGeometry>
                </mxCell>
                <mxCell id="45" style="edgeStyle=orthogonalEdgeStyle;html=1;exitX=1;exitY=0.5;exitDx=0;exitDy=0;entryX=0.5;entryY=0;entryDx=0;entryDy=0;shadow=1;endArrow=classic;endFill=1;rounded=1;strokeWidth=3;fontSize=18;" parent="1" source="13" target="66" edge="1">
                    <mxGeometry relative="1" as="geometry">
                        <mxPoint x="425" y="330" as="targetPoint"/>
                    </mxGeometry>
                </mxCell>
            </root>
        </mxGraphModel>
    </diagram>
</mxfile>